<?xml version="1.0" encoding="UTF-8"?>
<svg width="752pt" height="752pt" version="1.1" viewBox="0 0 752 752" xmlns="http://www.w3.org/2000/svg">
 <g fill="#ff0">
  <path d="m569.33 516-174.32-301.94c-3.9688-6.8672-11.066-10.973-19.004-10.973-7.9336 0-15.035 4.1016-19 10.973l-174.32 301.94c-3.9688 6.8711-3.9688 15.074 0 21.941 3.9688 6.8711 11.066 10.973 19.004 10.973h348.65c7.9336 0 15.035-4.1016 19.004-10.973 3.9648-6.8711 3.9648-15.074-0.003906-21.941zm-14.75 13.426c-0.42578 0.73828-1.6953 2.457-4.2539 2.457l-348.65 0.003907c-2.5625 0-3.8281-1.7188-4.2539-2.457-0.42578-0.73828-1.2773-2.6953 0-4.9102l174.32-301.94c1.2773-2.2148 3.3984-2.457 4.2539-2.457 0.85156 0 2.9727 0.24219 4.2539 2.457l174.32 301.94c1.2812 2.2148 0.42578 4.168 0 4.9062z"/>
  <path d="m393.91 492.7c0 9.2461-7.5 16.742-16.746 16.742-9.25 0-16.746-7.4961-16.746-16.742 0-9.25 7.4961-16.746 16.746-16.746 9.2461 0 16.746 7.4961 16.746 16.746"/>
  <path d="m377.17 310.48c-12.148 0-21.992 9.8477-21.992 21.992 0 1.332 0.13672 2.625 0.36328 3.8867l10.586 113.11c0 6.1016 4.9453 11.043 11.043 11.043 6.1016 0 11.043-4.9453 11.043-11.043l10.586-113.11c0.22656-1.2656 0.36328-2.5586 0.36328-3.8867 0-12.145-9.8477-21.992-21.992-21.992z"/>
 </g>
</svg>
